<?xml version="1.0" encoding="UTF-8" standalone="no"?>
<!-- Created with Inkscape (http://www.inkscape.org/) -->

<svg
   width="93.453308mm"
   height="82.055534mm"
   viewBox="0 0 93.453308 82.055534"
   version="1.1"
   id="svg5"
   xml:space="preserve"
   inkscape:version="1.2 (dc2aedaf03, 2022-05-15)"
   sodipodi:docname="icon.svg"
   inkscape:export-filename="icon.png"
   inkscape:export-xdpi="72"
   inkscape:export-ydpi="72"
   xmlns:inkscape="http://www.inkscape.org/namespaces/inkscape"
   xmlns:sodipodi="http://sodipodi.sourceforge.net/DTD/sodipodi-0.dtd"
   xmlns="http://www.w3.org/2000/svg"
   xmlns:svg="http://www.w3.org/2000/svg"><sodipodi:namedview
     id="namedview7"
     pagecolor="#505050"
     bordercolor="#eeeeee"
     borderopacity="1"
     inkscape:showpageshadow="0"
     inkscape:pageopacity="0"
     inkscape:pagecheckerboard="0"
     inkscape:deskcolor="#505050"
     inkscape:document-units="mm"
     showgrid="false"
     inkscape:zoom="0.73940797"
     inkscape:cx="224.50394"
     inkscape:cy="123.74765"
     inkscape:window-width="1920"
     inkscape:window-height="991"
     inkscape:window-x="-9"
     inkscape:window-y="-9"
     inkscape:window-maximized="1"
     inkscape:current-layer="layer1" /><defs
     id="defs2" /><g
     inkscape:label="Layer 1"
     inkscape:groupmode="layer"
     id="layer1"
     transform="translate(-44.520336,-104.14356)"><g
       id="g412"><g
         id="g210"
         transform="matrix(0.26458333,0,0,0.26458333,44.519437,137.99598)">
	<path
   d="m 330.08,70.199 c 3.078,-0.745 1.922,2.744 5,2 1.64,2.14 -2.549,4.854 -1,9.999 l -1.833,-0.5 -1.167,1.5 c -2.235,-0.432 -0.405,-4.929 -1,-7 l 0.444,-2.723 -2.444,-1.276 v -1 l 1.5,0.5 z"
   id="path182" />
	<path
   d="m 332.92,83.698 1.167,-1.5 c 6.869,4.129 12.841,9.155 18.997,13.998 0.697,5.029 -1.696,6.97 -1,11.998 -30.646,2.781 -58.67,6.19 -87.988,9.999 -9.23,1.199 -19.859,1.675 -27.996,3.999 -12.092,3.456 -16.467,12.16 -30.996,13.999 -7.099,0.897 -12.355,-1.795 -19.998,-1 -9.243,0.961 -20.285,7.338 -29.997,10.998 C 126.205,157.085 96.018,168.953 70.12,182.185 62.344,174.209 57.884,163.682 52.122,154.188 35.432,126.686 17.114,98.332 0.129,70.2 c -0.895,-3.229 3.261,-1.405 4,-3 l 1.5,0.5 1.5,-0.5 c 20.867,34.459 42.363,68.289 63.992,101.99 0.595,-2.07 -1.236,-6.567 1,-6.999 l 1.167,1.5 1.833,-0.5 c 1.327,4.385 -1.89,9.365 -1,9.999 36.686,-17.974 64.597,-44.724 119.98,-43.995 -0.848,-11.512 5.246,-16.084 8.998,-22.997 -1.582,-0.083 -3.812,0.481 -3.998,-1 l 0.5,-1.499 -0.5,-1.5 c 0.851,0.185 0.942,-0.39 1,-1 l 1.355,-1.214 -0.355,-1.786 c 3.864,0.136 3.942,4.057 6.998,5 l 1.215,1.356 1.785,-0.356 c -0.668,4.331 -4.627,5.371 -5,9.998 4.711,-0.289 7.08,-2.919 12.998,-1.999 3.942,1.058 3.812,6.188 6,8.998 19.527,-24.133 67.58,-19.74 109.99,-20.997 -1.188,-5.811 -4.154,-9.844 -4,-16.997 l 1.85,0.495 z"
   id="path184" />
	<path
   d="m 5.958,65.7 -1.833,0.5 c 0.083,-1.583 -0.481,-3.814 1,-4 l 1.167,1.5 1.833,-0.5 c -0.083,1.583 0.481,3.812 -1,4 z"
   id="path186" />
	<g
   stroke="#000000"
   stroke-linecap="round"
   fill="none"
   id="g208">
		<path
   stroke-width="3.1619"
   d="m 332.25,81.698 c 0.222,0.667 0.444,1.333 0.666,2"
   id="path188" />
		<path
   stroke-width="3.0818"
   d="m 5.625,67.7 c 0.04,-0.667 0.184,-1.333 0.333,-2"
   id="path190" />
		<path
   stroke-width="3.3387"
   d="M 6.292,63.7 C 7.136,58.762 7.877,52.432 13.024,50.1"
   id="path192" />
		<path
   stroke-width="2.2807"
   d="M 13.024,50.102 C 44.302,29.346 88.078,-3.624 124.474,26.99"
   id="path194" />
		<path
   stroke-width="2.328"
   d="M 124.47,26.99 C 146,-8.966 193.06,8.878 227.44,1.248 261.25,25.011 296.54,47.15 329.58,71.7"
   id="path196" />
		<path
   stroke-width="3.9899"
   d="M 209.31,104.55 C 236.872,66.875 290.224,80.436 330.53,73.475"
   id="path198" />
		<path
   stroke-width="3.0382"
   d="m 124.47,26.99 c 26.053,23.891 50.821,49.292 76.99,72.99"
   id="path200" />
		<path
   stroke-width="2.6156"
   d="m 13.024,50.102 c 22.017,30.93 40.332,64.812 62.092,96.088"
   id="path202" />
		<path
   stroke-width="2.9805"
   d="m 75.117,146.19 c 39.787,-18.125 77.92,-48.677 124.48,-42.494"
   id="path204" />
		<path
   stroke-width="3.7282"
   d="m 75.117,146.19 c -0.556,5.836 -0.93,11.693 -1.833,17.498"
   id="path206" />
	</g>
</g><g
         id="g370"
         transform="matrix(0.10296979,-2.9433946,2.9433946,0.10296979,-143.24927,344.2624)"
         inkscape:transform-center-x="-24.337333"
         inkscape:transform-center-y="41.476306"><path
           d="m 84.322758,85.821037 -0.873918,0.917839 c 0.11721,0.174625 0.177535,0.379148 0.17145,0.590021 -0.0069,0.258234 -0.112977,0.496359 -0.29845,0.670454 -0.188913,0.179653 -0.441325,0.271728 -0.70538,0.259292 -0.251354,-0.01191 -0.487891,-0.116681 -0.669131,-0.296069 L 79.3052,90.354672 c -0.0045,0.004 -0.0095,0.0053 -0.01429,0.0085 0.248708,0.245798 0.531548,0.478102 0.830791,0.703792 0.150284,0.06535 0.295804,0.130175 0.450057,0.195527 1.371864,0.211402 2.481791,-0.255059 3.36206,-1.309423 0.217487,-0.511704 0.445823,-1.019704 0.669131,-1.527969 0.12409,-0.954352 -0.03651,-1.795727 -0.280194,-2.604029 z"
           id="path234"
           style="stroke-width:0.264583" /><path
           d="m 67.87229,70.80752 1.443831,-0.109008 c -0.612246,-0.581025 -1.750483,-1.653117 -1.857639,-1.702329 -0.919163,0.26035 -2.810405,0.667544 -2.821253,0.697442 0.803805,0.887148 1.690953,1.7399 2.394215,2.665148 l 0.685535,-1.444625 c 0.02884,-0.06086 0.08837,-0.1016 0.155311,-0.106628 z"
           id="path236"
           style="stroke-width:0.264583" /><path
           d="m 84.0931,85.518618 c 0.01614,-0.0164 0.03492,-0.02831 0.0545,-0.0381 -0.410633,-0.636058 -0.959114,-1.219994 -1.282435,-1.890712 -0.16219,-0.09472 -0.2413,0.01535 -0.398463,-0.06906 0.03545,-0.314325 -0.03387,-0.538162 -0.421481,-0.504295 0.09446,-0.161132 -0.01243,-0.245269 0.06641,-0.398463 -0.466461,0.06376 -0.28919,-0.256117 -0.549011,-0.456935 0.0799,-0.243946 -0.210079,0.05424 -0.357981,-0.154517 0.205846,-0.444765 -0.105304,-0.401108 -0.422804,-0.509587 0.393964,-0.614363 -0.637646,-0.212196 -0.301096,-0.777346 -0.155046,-0.07329 -0.287867,-0.100542 -0.40005,-0.0672 -0.03784,-0.15875 -0.162454,-0.282046 -0.111654,-0.477044 -0.16219,-0.09525 -0.2413,0.01243 -0.398463,-0.06588 0.239713,-0.572559 -0.567531,-0.272521 -0.391583,-0.816769 -0.348192,-0.112448 -0.61939,-0.256911 -0.512233,-0.546894 -0.245269,-0.03731 -0.541073,-0.01958 -0.369623,-0.374914 -0.223044,-0.185738 -0.287867,0.02302 -0.488686,-0.108215 0.0095,-0.154517 -0.03387,-0.284163 -0.02593,-0.439208 -0.262731,0.04445 -0.569912,-0.03704 -0.70829,-0.17833 -0.392377,-0.401372 -5.617368,-5.741193 -6.695016,-6.713537 -0.03122,0.04366 -2.370667,0.2413 -2.370667,0.2413 0,0 -0.924983,1.922992 -0.950648,1.940983 0.778934,0.951177 1.623219,1.870869 2.458773,2.794529 0.146315,0.477838 0.27305,0.865717 0.464873,1.384036 0.418836,0.183885 0.837671,0.367506 1.257829,0.551656 0.97499,0.936625 1.759479,1.947069 2.696369,2.897452 0.832115,1.015206 1.940983,1.922198 2.392362,3.088217 0.215371,0.08943 0.197644,0.272256 0.500328,0.326496 -0.02593,0.13282 0.05318,0.227541 -0.06641,0.396875 0.492125,0.08255 0.332052,0.417777 0.343165,0.688975 0.239712,0.11377 0.245004,-0.07038 0.359304,0.155839 -0.276754,0.357981 0.132821,0.444765 0.251619,0.646642 -0.07673,0.154252 -0.102659,0.287602 -0.06879,0.401108 0.299773,0.08017 0.364596,0.253736 0.200025,0.514086 0.06112,0.177535 0.423862,0.232833 0.332846,0.468841 -0.09155,0.113771 -0.174096,0.105304 -0.119327,0.270669 0.163777,0.166687 0.442118,0.134408 0.163777,0.604573 0.0598,0.176477 0.424391,0.231775 0.329671,0.46646 -0.03969,0.09102 -0.07885,0.181769 -0.119327,0.271198 0.111389,0.386027 0.326231,0.731838 0.604572,1.052777 0.005,-0.0058 0.0074,-0.01323 0.01349,-0.01826 l 2.778919,-2.515923 c 0.07594,-0.06906 0.193146,-0.0635 0.26326,0.01164 l 0.101865,0.109802 c 0.115887,0.121708 0.271462,0.193939 0.436827,0.202142 0.166952,0.0048 0.315119,-0.04868 0.429948,-0.157692 0.112977,-0.105833 0.177006,-0.250561 0.181504,-0.408252 0.0048,-0.170127 -0.0598,-0.333904 -0.18124,-0.461169 -0.06906,-0.07223 -0.06932,-0.186267 -2.64e-4,-0.258762 z m -6.838421,-2.758016 -1.847585,-2.027767 c -0.253735,-0.280988 -0.279929,-0.688181 -0.08996,-0.996421 -0.1143,-0.145785 -0.153194,-0.339989 -0.101865,-0.524669 -0.304535,0.145257 -0.687387,0.08255 -0.938742,-0.184414 L 69.2976,73.775352 c -0.310621,-0.328084 -0.305064,-0.839259 0.0066,-1.135327 0.318294,-0.298186 0.824177,-0.275432 1.137179,0.05424 l 4.97549,5.252773 c 0.229658,0.243681 0.286808,0.586317 0.173302,0.869421 0.134672,-0.04498 0.28575,-0.04392 0.427037,0.01826 0.07303,0.03202 0.136525,0.07726 0.188383,0.132027 0.307975,-0.107156 0.664898,-0.02858 0.89879,0.226484 l 1.857375,2.040731 z m 3.390371,1.563952 -0.458258,0.417777 c -0.341577,0.310356 -0.82259,0.336285 -1.078706,0.05847 l -0.843492,-0.928952 1.685396,-1.550723 0.852487,0.938477 c 0.253471,0.276225 0.18415,0.756179 -0.157427,1.064948 z"
           id="path238"
           style="stroke-width:0.264583" /></g></g></g></svg>
